<svg width="138" height="32" viewBox="0 0 138 32" fill="none" xmlns="http://www.w3.org/2000/svg">
<path d="M54.1101 31.9997H47.1716L46.1163 24.8947H34.3498L30.3133 31.9997H22.9263L41.6577 0.186382H48.8073L54.0838 31.9997H54.1101ZM45.5095 19.7516L43.7683 7.68903L37.0144 19.7516H45.5095Z" fill="#5B1BBF"/>
<path d="M73.9491 0.186382L68.6726 7.39741L76.9567 6.86718L82.2331 0.186382H73.9755H73.9491ZM64.0821 13.6805L59.3861 0.186382H52.2365L59.9137 19.6721L57.3283 31.9997H64.1349L66.6676 19.9372L74.978 9.38574L66.8523 9.91596L64.1085 13.6805H64.0821Z" fill="#5B1BBF"/>
<path d="M107.033 5.7805L86.0851 26.1941H103.788L102.574 32H75.8224L77.0096 26.1941L97.8252 5.96608H81.943L83.183 0.213169H108.167L107.006 5.80702L107.033 5.7805Z" fill="#5B1BBF"/>
<path d="M111.069 31.9997H104.13L110.831 0.186382H117.77L111.069 31.9997Z" fill="#5B1BBF"/>
<path d="M136.581 0.186382H119.3L112.599 31.9997H136.581C137.346 31.9997 137.952 30.9393 137.952 29.6402V2.54587C137.952 1.22032 137.346 0.186382 136.581 0.186382ZM127.874 15.7484L133.89 27.3603H129.035L124.55 18.5056L121.464 21.1302L120.144 27.3603H115.87L120.039 7.63601H124.313L122.624 15.7219L131.647 7.63601H137.319L127.901 15.7484H127.874Z" fill="#5B1BBF"/>
<path d="M30.8937 3.68505C29.8647 2.1474 28.5192 1.13998 26.778 0.636267C25.3006 0.212089 23.4538 0 21.2114 0H8.96998L0 31.8133H9.10189L11.5554 20.387H18.3621C22.5305 20.387 25.5908 19.7773 27.5167 18.5578C29.0205 17.6034 30.2341 16.2778 31.1311 14.5546C32.0017 12.8579 32.4502 11.0021 32.4502 9.04029C32.4502 7.07847 31.9489 5.2492 30.92 3.71156L30.8937 3.68505ZM17.0166 18.5313L17.7817 14.9788L12.8746 18.1336L16.4889 1.56416L19.6284 6.49522L20.6046 1.96182L27.0682 12.0626L17.0166 18.5313Z" fill="#5B1BBF"/>
</svg>
