<svg width="124" height="124" viewBox="0 0 124 124" fill="none" xmlns="http://www.w3.org/2000/svg">
<mask id="mask0_249_2775" style="mask-type:alpha" maskUnits="userSpaceOnUse" x="0" y="0" width="124" height="124">
<rect width="124" height="124" fill="#D9D9D9"/>
</mask>
<g mask="url(#mask0_249_2775)">
<path d="M20.6667 61.9998H103.333V41.3332H20.6667V61.9998ZM98.1667 113.667V98.1665H82.6667V87.8332H98.1667V72.3332H108.5V87.8332H124V98.1665H108.5V113.667H98.1667ZM20.6667 103.333C17.825 103.333 15.3924 102.321 13.3687 100.298C11.3451 98.2741 10.3333 95.8415 10.3333 92.9998V30.9998C10.3333 28.1582 11.3451 25.7255 13.3687 23.7019C15.3924 21.6783 17.825 20.6665 20.6667 20.6665H103.333C106.175 20.6665 108.608 21.6783 110.631 23.7019C112.655 25.7255 113.667 28.1582 113.667 30.9998V61.9998H98.1667C91.0194 61.9998 84.9271 64.5186 79.8896 69.5561C74.8521 74.5936 72.3333 80.6859 72.3333 87.8332V103.333H20.6667Z" fill="#B148FC"/>
</g>
</svg>
