<svg width="64" height="64" viewBox="0 0 64 64" fill="none" xmlns="http://www.w3.org/2000/svg">
<path d="M42.6667 58.6666V57.3332C42.6667 54.3866 45.152 51.9999 47.792 50.6932C50.36 49.4266 52.5173 47.3332 52.792 44.8799L53.3333 39.9999L58.6667 37.3333L52 27.3333C52.0014 21.8437 49.9505 16.552 46.25 12.4972C42.5495 8.44245 37.4668 5.91763 32 5.41859M17.3333 45.3226V58.6666M17.3333 45.3226C14.5682 43.3709 12.2876 40.811 10.6667 37.8399M17.3333 45.3226C19.3333 46.7359 21.584 47.8212 24 48.5039M14.6667 26.6666V31.9999M22.6667 26.6666V31.9999M14.6667 5.33325V10.6666M22.6667 5.33325V10.6666M10.6667 14.6666H5.33334M10.6667 22.6666H5.33334M32 14.6666H26.6667M32 22.6666H26.6667M21.3333 10.6666H16C13.4853 10.6666 12.2293 10.6666 11.448 11.4479C10.6667 12.2293 10.6667 13.4853 10.6667 15.9999V21.3333C10.6667 23.8479 10.6667 25.1039 11.448 25.8853C12.2293 26.6666 13.4853 26.6666 16 26.6666H21.3333C23.848 26.6666 25.104 26.6666 25.8853 25.8853C26.6667 25.1039 26.6667 23.8479 26.6667 21.3333V15.9999C26.6667 13.4853 26.6667 12.2293 25.8853 11.4479C25.104 10.6666 23.848 10.6666 21.3333 10.6666Z" stroke="#141414" stroke-width="5" stroke-linecap="round" stroke-linejoin="round"/>
</svg>
