<svg width="64" height="64" viewBox="0 0 64 64" fill="none" xmlns="http://www.w3.org/2000/svg">
<path d="M58.6925 15.065C58.5485 14.7849 58.3403 14.5428 58.085 14.3584C57.8297 14.174 57.5345 14.0524 57.2233 14.0037C56.9122 13.955 56.5939 13.9804 56.2944 14.078C55.995 14.1755 55.7228 14.3424 55.5 14.565L47.82 22.25C47.443 22.6216 46.9349 22.8299 46.4056 22.8299C45.8763 22.8299 45.3683 22.6216 44.9912 22.25L41.6712 18.925C41.4855 18.7393 41.3381 18.5188 41.2376 18.2761C41.1371 18.0335 41.0853 17.7734 41.0853 17.5107C41.0853 17.248 41.1371 16.9879 41.2376 16.7452C41.3381 16.5025 41.4855 16.282 41.6712 16.0963L49.3187 8.44754C49.548 8.21832 49.7181 7.9368 49.8144 7.62724C49.9107 7.31767 49.9303 6.98934 49.8715 6.67052C49.8127 6.3517 49.6773 6.05196 49.4769 5.7971C49.2765 5.54224 49.0172 5.33992 48.7212 5.20754C42.945 2.62504 35.735 3.97254 31.1888 8.48504C27.3263 12.32 26.175 18.3125 28.0325 24.9263C28.1327 25.279 28.1332 25.6525 28.0342 26.0055C27.9351 26.3585 27.7403 26.6772 27.4713 26.9263L6.66125 45.9325C5.85055 46.6604 5.19664 47.5459 4.7394 48.5348C4.28216 49.5237 4.03119 50.5954 4.00178 51.6845C3.97237 52.7737 4.16515 53.8574 4.56835 54.8695C4.97156 55.8817 5.57674 56.8011 6.34697 57.5717C7.11721 58.3423 8.03636 58.9478 9.04834 59.3515C10.0603 59.7551 11.1439 59.9484 12.2331 59.9195C13.3222 59.8906 14.394 59.64 15.3832 59.1832C16.3723 58.7264 17.258 58.0729 17.9863 57.2625L37.1963 36.4063C37.4418 36.1407 37.7551 35.9472 38.1024 35.8465C38.4498 35.7459 38.818 35.7419 39.1675 35.835C41.0504 36.351 42.9927 36.6186 44.945 36.6313C49.12 36.6313 52.7838 35.28 55.4263 32.6763C60.32 27.855 61.0662 19.6775 58.6925 15.065ZM12.435 55.8938C11.6118 55.9837 10.7809 55.8158 10.0571 55.4133C9.33334 55.0109 8.75232 54.3937 8.39423 53.647C8.03615 52.9003 7.91866 52.0608 8.05798 51.2445C8.1973 50.4281 8.58656 49.6752 9.17204 49.0895C9.75752 48.5038 10.5104 48.1143 11.3266 47.9747C12.1429 47.8351 12.9824 47.9522 13.7293 48.3101C14.4761 48.6679 15.0935 49.2487 15.4962 49.9723C15.8989 50.696 16.0671 51.5268 15.9775 52.35C15.879 53.2559 15.4741 54.1009 14.8299 54.7453C14.1857 55.3898 13.3408 55.7949 12.435 55.8938Z" fill="#141414"/>
</svg>
