<svg width="124" height="124" viewBox="0 0 124 124" fill="none" xmlns="http://www.w3.org/2000/svg">
<mask id="mask0_249_2784" style="mask-type:alpha" maskUnits="userSpaceOnUse" x="0" y="0" width="124" height="124">
<rect width="124" height="124" fill="#D9D9D9"/>
</mask>
<g mask="url(#mask0_249_2784)">
<path d="M29.8375 113.667C27.082 113.667 24.7785 112.633 22.9271 110.567C21.0757 108.5 20.3222 106.089 20.6667 103.334H41.7209L46.8875 82.6668H57.2209L64.9709 51.6668H27.125L28.5459 40.0418C28.8903 37.4585 30.0528 35.3057 32.0334 33.5835C34.0139 31.8613 36.2959 31.0002 38.8792 31.0002H49.0834C49.7722 24.5418 51.9896 19.4828 55.7354 15.8231C59.4813 12.1634 64.5834 10.3335 71.0417 10.3335C76.5528 10.3335 81.1382 12.3786 84.7979 16.4689C88.4577 20.5592 90.2445 25.4029 90.1584 31.0002H103.333C106.433 31.0002 109.017 32.1627 111.083 34.4877C113.15 36.8127 113.968 39.5252 113.538 42.6252L105.788 104.625C105.443 107.209 104.302 109.361 102.365 111.084C100.427 112.806 98.1667 113.667 95.5834 113.667H29.8375ZM5.16669 93.0002L7.75002 82.6668H36.1667L33.5834 93.0002H5.16669ZM15.5 72.3335L18.0834 62.0002H51.6667L49.0834 72.3335H15.5ZM59.4167 31.0002H79.9542C80.0403 28.1585 79.0716 25.7259 77.0479 23.7022C75.0243 21.6786 72.5917 20.6668 69.75 20.6668C66.7361 20.6668 64.3466 21.5925 62.5813 23.4439C60.816 25.2953 59.7611 27.8141 59.4167 31.0002Z" fill="#9605FF"/>
</g>
</svg>
