<svg width="64" height="64" viewBox="0 0 64 64" fill="none" xmlns="http://www.w3.org/2000/svg">
<path fill-rule="evenodd" clip-rule="evenodd" d="M49.3333 37.3333C44.1787 37.3333 40 41.2213 40 46.0186C40 50.7786 42.9787 56.3333 47.6267 58.3199C48.7093 58.7813 49.9573 58.7813 51.04 58.3199C55.688 56.3333 58.6667 50.7786 58.6667 46.0186C58.6667 41.2213 54.488 37.3333 49.3333 37.3333ZM49.3333 49.3333C50.0406 49.3333 50.7189 49.0523 51.219 48.5522C51.7191 48.0521 52 47.3738 52 46.6666C52 45.9593 51.7191 45.2811 51.219 44.781C50.7189 44.2809 50.0406 43.9999 49.3333 43.9999C48.6261 43.9999 47.9478 44.2809 47.4477 44.781C46.9476 45.2811 46.6667 45.9593 46.6667 46.6666C46.6667 47.3738 46.9476 48.0521 47.4477 48.5522C47.9478 49.0523 48.6261 49.3333 49.3333 49.3333ZM14.6667 5.33325C9.512 5.33325 5.33334 9.22125 5.33334 14.0186C5.33334 18.7786 8.312 24.3333 12.96 26.3199C14.0427 26.7813 15.2907 26.7813 16.3733 26.3199C21.0213 24.3333 24 18.7786 24 14.0186C24 9.22125 19.8213 5.33325 14.6667 5.33325ZM14.6667 17.3333C15.3739 17.3333 16.0522 17.0523 16.5523 16.5522C17.0524 16.0521 17.3333 15.3738 17.3333 14.6666C17.3333 13.9593 17.0524 13.2811 16.5523 12.781C16.0522 12.2809 15.3739 11.9999 14.6667 11.9999C13.9594 11.9999 13.2811 12.2809 12.7811 12.781C12.281 13.2811 12 13.9593 12 14.6666C12 15.3738 12.281 16.0521 12.7811 16.5522C13.2811 17.0523 13.9594 17.3333 14.6667 17.3333ZM30 13.3333C30 12.8028 30.2107 12.2941 30.5858 11.919C30.9609 11.544 31.4696 11.3333 32 11.3333H43.0187C50.3547 11.3333 53.144 20.9146 46.9547 24.8533L19.1947 42.5199C16.3787 44.3119 17.648 48.6666 20.9813 48.6666H27.1707L26.584 48.0799C26.3931 47.8953 26.2408 47.6746 26.1361 47.4305C26.0314 47.1865 25.9764 46.924 25.9742 46.6584C25.972 46.3929 26.0227 46.1295 26.1234 45.8838C26.2241 45.6381 26.3727 45.4148 26.5606 45.2271C26.7484 45.0394 26.9718 44.891 27.2176 44.7906C27.4635 44.6901 27.7269 44.6397 27.9924 44.6421C28.258 44.6445 28.5204 44.6998 28.7644 44.8047C29.0083 44.9097 29.2289 45.0621 29.4133 45.2533L33.4133 49.2533C33.7879 49.6283 33.9982 50.1366 33.9982 50.6666C33.9982 51.1966 33.7879 51.7049 33.4133 52.0799L29.4133 56.0799C29.2302 56.2764 29.0094 56.434 28.7641 56.5433C28.5188 56.6526 28.2539 56.7114 27.9854 56.7162C27.7169 56.7209 27.4501 56.6715 27.2011 56.5709C26.952 56.4703 26.7258 56.3206 26.5359 56.1307C26.346 55.9408 26.1963 55.7145 26.0957 55.4655C25.9951 55.2165 25.9457 54.9497 25.9504 54.6812C25.9552 54.4127 26.0139 54.1478 26.1233 53.9025C26.2326 53.6572 26.3902 53.4364 26.5867 53.2533L27.1733 52.6666H20.9787C13.6427 52.6666 10.8533 43.0853 17.0427 39.1466L44.8053 21.4799C47.6187 19.6879 46.352 15.3333 43.016 15.3333H32C31.4696 15.3333 30.9609 15.1225 30.5858 14.7475C30.2107 14.3724 30 13.8637 30 13.3333Z" fill="#141414"/>
</svg>
